<svg xmlns="http://www.w3.org/2000/svg" viewBox="0 0 220 48" fill="none">
  <defs>
    <linearGradient id="acpf-bg" x1="0" y1="0" x2="48" y2="48" gradientUnits="userSpaceOnUse">
      <stop offset="0%" stop-color="#3b82f6"/>
      <stop offset="55%" stop-color="#2563eb"/>
      <stop offset="100%" stop-color="#1e3a8a"/>
    </linearGradient>
    <linearGradient id="acpf-shine" x1="0" y1="0" x2="0" y2="24" gradientUnits="userSpaceOnUse">
      <stop offset="0%" stop-color="#ffffff" stop-opacity="0.35"/>
      <stop offset="100%" stop-color="#ffffff" stop-opacity="0"/>
    </linearGradient>
    <linearGradient id="acpf-amber" x1="0" y1="0" x2="1" y2="1">
      <stop offset="0%" stop-color="#fbbf24"/>
      <stop offset="100%" stop-color="#f59e0b"/>
    </linearGradient>
  </defs>
  <rect x="2" y="2" width="44" height="44" rx="12" fill="url(#acpf-bg)"/>
  <rect x="2" y="2" width="44" height="22" rx="12" fill="url(#acpf-shine)"/>
  <path d="M11 29.5 L14.5 22.5 C15.3 21 16.9 20 18.7 20 L29.3 20 C31.1 20 32.7 21 33.5 22.5 L37 29.5 L37 33 C37 33.8 36.3 34.5 35.5 34.5 L33.5 34.5 C32.7 34.5 32 33.8 32 33 L32 32 L16 32 L16 33 C16 33.8 15.3 34.5 14.5 34.5 L12.5 34.5 C11.7 34.5 11 33.8 11 33 Z" fill="#ffffff"/>
  <path d="M16.5 28 L17.5 24 C17.7 23.3 18.3 23 19 23 L29 23 C29.7 23 30.3 23.3 30.5 24 L31.5 28 Z" fill="#1e3a8a"/>
  <circle cx="16.5" cy="30.5" r="1.25" fill="#1e3a8a"/>
  <circle cx="31.5" cy="30.5" r="1.25" fill="#1e3a8a"/>
  <circle cx="38.5" cy="10.5" r="3.5" fill="url(#acpf-amber)"/>
  <path d="M38.5 8.4 L39.1 9.8 L40.6 10 L39.5 11 L39.8 12.5 L38.5 11.8 L37.2 12.5 L37.5 11 L36.4 10 L37.9 9.8 Z" fill="#ffffff"/>
  <text x="58" y="28" font-family="'Inter', system-ui, -apple-system, sans-serif" font-size="20" font-weight="800" fill="#0f172a" letter-spacing="-0.5">AutoCare</text>
  <text x="164" y="28" font-family="'Inter', system-ui, -apple-system, sans-serif" font-size="20" font-weight="800" fill="#2563eb" letter-spacing="-0.5">Pro</text>
  <text x="58" y="40" font-family="'Inter', system-ui, -apple-system, sans-serif" font-size="8" font-weight="600" fill="#94a3b8" letter-spacing="2">SERVICE &middot; PARTS &middot; CARE</text>
</svg>
